<mxfile host="app.diagrams.net" agent="Mozilla/5.0 (Windows NT 10.0; Win64; x64) AppleWebKit/537.36 (KHTML, like Gecko) Chrome/136.0.0.0 Safari/537.36" version="27.0.6" pages="2">
  <diagram name="C4 Context Diagram" id="context1">
    <mxGraphModel dx="872" dy="489" grid="1" gridSize="10" guides="1" tooltips="1" connect="1" arrows="1" fold="1" page="1" pageScale="1" pageWidth="827" pageHeight="1169" math="0" shadow="0">
      <root>
        <mxCell id="0" />
        <mxCell id="1" parent="0" />
        <mxCell id="2" value="E-commerce Web (Tomcat)" style="rounded=1;whiteSpace=wrap;html=1;fillColor=#dae8fc;strokeColor=#6c8ebf;fontSize=16;fontStyle=1;" parent="1" vertex="1">
          <mxGeometry x="400" y="200" width="200" height="80" as="geometry" />
        </mxCell>
        <mxCell id="3" value="Administrador" style="shape=actor;whiteSpace=wrap;html=1;fillColor=#fff2cc;strokeColor=#d6b656;" parent="1" vertex="1">
          <mxGeometry x="100" y="100" width="60" height="80" as="geometry" />
        </mxCell>
        <mxCell id="4" value="Cliente" style="shape=actor;whiteSpace=wrap;html=1;fillColor=#d5e8d4;strokeColor=#82b366;" parent="1" vertex="1">
          <mxGeometry x="100" y="250" width="60" height="80" as="geometry" />
        </mxCell>
        <mxCell id="5" value="Vendedor" style="shape=actor;whiteSpace=wrap;html=1;fillColor=#f8cecc;strokeColor=#b85450;" parent="1" vertex="1">
          <mxGeometry x="100" y="400" width="60" height="80" as="geometry" />
        </mxCell>
        <mxCell id="6" value="Invitado" style="shape=actor;whiteSpace=wrap;html=1;fillColor=#e1d5e7;strokeColor=#9673a6;" parent="1" vertex="1">
          <mxGeometry x="100" y="550" width="60" height="80" as="geometry" />
        </mxCell>
        <mxCell id="7" value="API mymaps" style="rounded=1;whiteSpace=wrap;html=1;fillColor=#fff2cc;strokeColor=#d6b656;" parent="1" vertex="1">
          <mxGeometry x="700" y="150" width="120" height="60" as="geometry" />
        </mxCell>
        <mxCell id="8" value="Google Maps" style="rounded=1;whiteSpace=wrap;html=1;fillColor=#fff2cc;strokeColor=#d6b656;" parent="1" vertex="1">
          <mxGeometry x="700" y="300" width="120" height="60" as="geometry" />
        </mxCell>
        <mxCell id="20" value="Web Application (Tomcat)\nLógica de negocio, JSP/Servlets" style="rounded=1;whiteSpace=wrap;html=1;fillColor=#dae8fc;strokeColor=#6c8ebf;fontSize=14;" parent="1" vertex="1">
          <mxGeometry x="400" y="800" width="220" height="80" as="geometry" />
        </mxCell>
        <mxCell id="21" value="Base de Datos\nPostgreSQL" style="shape=cylinder;whiteSpace=wrap;html=1;fillColor=#e1d5e7;strokeColor=#9673a6;fontSize=14;" parent="1" vertex="1">
          <mxGeometry x="700" y="850" width="120" height="60" as="geometry" />
        </mxCell>
        <mxCell id="22" value="Servicio Gestión de Productos" style="rounded=1;whiteSpace=wrap;html=1;fillColor=#d5e8d4;strokeColor=#82b366;fontSize=14;" parent="1" vertex="1">
          <mxGeometry x="200" y="950" width="180" height="60" as="geometry" />
        </mxCell>
        <mxCell id="23" value="Servicio Auditoría" style="rounded=1;whiteSpace=wrap;html=1;fillColor=#fff2cc;strokeColor=#d6b656;fontSize=14;" parent="1" vertex="1">
          <mxGeometry x="650" y="1000" width="150" height="60" as="geometry" />
        </mxCell>
        <mxCell id="30" value="Paquete productos\n(Gestión de productos, lógica de catálogo)" style="rounded=1;whiteSpace=wrap;html=1;fillColor=#d5e8d4;strokeColor=#82b366;fontSize=12;" parent="1" vertex="1">
          <mxGeometry x="400" y="1200" width="200" height="60" as="geometry" />
        </mxCell>
        <mxCell id="31" value="Paquete datos\n(Acceso a datos, DAOs)" style="rounded=1;whiteSpace=wrap;html=1;fillColor=#e1d5e7;strokeColor=#9673a6;fontSize=12;" parent="1" vertex="1">
          <mxGeometry x="650" y="1200" width="180" height="60" as="geometry" />
        </mxCell>
        <mxCell id="32" value="Paquete negocio\n(Lógica de negocio, servicios)" style="rounded=1;whiteSpace=wrap;html=1;fillColor=#dae8fc;strokeColor=#6c8ebf;fontSize=12;" parent="1" vertex="1">
          <mxGeometry x="400" y="1300" width="200" height="60" as="geometry" />
        </mxCell>
        <mxCell id="33" value="Paquete seguridad\n(Autenticación y autorización)" style="rounded=1;whiteSpace=wrap;html=1;fillColor=#fff2cc;strokeColor=#d6b656;fontSize=12;" parent="1" vertex="1">
          <mxGeometry x="650" y="1300" width="180" height="60" as="geometry" />
        </mxCell>
        <mxCell id="34" value="JSPs (Vistas)\nwebapp/" style="rounded=1;whiteSpace=wrap;html=1;fillColor=#f8cecc;strokeColor=#b85450;fontSize=12;" parent="1" vertex="1">
          <mxGeometry x="200" y="1200" width="160" height="60" as="geometry" />
        </mxCell>
        <mxCell id="35" value="JS y CSS\nwebapp/" style="rounded=1;whiteSpace=wrap;html=1;fillColor=#b7e1cd;strokeColor=#388e3c;fontSize=12;" parent="1" vertex="1">
          <mxGeometry x="200" y="1300" width="160" height="60" as="geometry" />
        </mxCell>
        <mxCell id="50" value="Producto.java" style="rounded=1;whiteSpace=wrap;html=1;fillColor=#d5e8d4;strokeColor=#82b366;fontSize=11;" parent="1" vertex="1">
          <mxGeometry x="400" y="1450" width="120" height="40" as="geometry" />
        </mxCell>
        <mxCell id="51" value="ProductoDAO.java" style="rounded=1;whiteSpace=wrap;html=1;fillColor=#e1d5e7;strokeColor=#9673a6;fontSize=11;" parent="1" vertex="1">
          <mxGeometry x="650" y="1450" width="120" height="40" as="geometry" />
        </mxCell>
        <mxCell id="52" value="NegocioProducto.java" style="rounded=1;whiteSpace=wrap;html=1;fillColor=#dae8fc;strokeColor=#6c8ebf;fontSize=11;" parent="1" vertex="1">
          <mxGeometry x="400" y="1520" width="140" height="40" as="geometry" />
        </mxCell>
        <mxCell id="53" value="SeguridadService.java" style="rounded=1;whiteSpace=wrap;html=1;fillColor=#fff2cc;strokeColor=#d6b656;fontSize=11;" parent="1" vertex="1">
          <mxGeometry x="650" y="1520" width="140" height="40" as="geometry" />
        </mxCell>
        <mxCell id="54" value="index.jsp" style="rounded=1;whiteSpace=wrap;html=1;fillColor=#f8cecc;strokeColor=#b85450;fontSize=11;" parent="1" vertex="1">
          <mxGeometry x="200" y="1450" width="100" height="40" as="geometry" />
        </mxCell>
        <mxCell id="55" value="main.js" style="rounded=1;whiteSpace=wrap;html=1;fillColor=#b7e1cd;strokeColor=#388e3c;fontSize=11;" parent="1" vertex="1">
          <mxGeometry x="200" y="1520" width="100" height="40" as="geometry" />
        </mxCell>
        <mxCell id="56" value="estilos.css" style="rounded=1;whiteSpace=wrap;html=1;fillColor=#b7e1cd;strokeColor=#388e3c;fontSize=11;" parent="1" vertex="1">
          <mxGeometry x="320" y="1520" width="100" height="40" as="geometry" />
        </mxCell>
        <mxCell id="57" value="Auditoria.sql" style="rounded=1;whiteSpace=wrap;html=1;fillColor=#e1d5e7;strokeColor=#9673a6;fontSize=11;" parent="1" vertex="1">
          <mxGeometry x="800" y="1450" width="120" height="40" as="geometry" />
        </mxCell>
        <mxCell id="58" value="Query.sql" style="rounded=1;whiteSpace=wrap;html=1;fillColor=#e1d5e7;strokeColor=#9673a6;fontSize=11;" parent="1" vertex="1">
          <mxGeometry x="800" y="1520" width="120" height="40" as="geometry" />
        </mxCell>
        <mxCell id="59" value="Usa" style="endArrow=block;endFill=1;strokeColor=#000000;" parent="1" source="52" target="50" edge="1">
          <mxGeometry relative="1" as="geometry" />
        </mxCell>
        <mxCell id="60" value="Usa" style="endArrow=block;endFill=1;strokeColor=#000000;" parent="1" source="51" target="50" edge="1">
          <mxGeometry relative="1" as="geometry" />
        </mxCell>
        <mxCell id="61" value="Accede" style="endArrow=block;endFill=1;strokeColor=#000000;" parent="1" source="51" target="57" edge="1">
          <mxGeometry relative="1" as="geometry" />
        </mxCell>
        <mxCell id="62" value="Accede" style="endArrow=block;endFill=1;strokeColor=#000000;" parent="1" source="51" target="58" edge="1">
          <mxGeometry relative="1" as="geometry" />
        </mxCell>
        <mxCell id="63" value="Incluye" style="endArrow=block;endFill=1;strokeColor=#000000;dashed=1;" parent="1" source="54" target="55" edge="1">
          <mxGeometry relative="1" as="geometry" />
        </mxCell>
        <mxCell id="64" value="Incluye" style="endArrow=block;endFill=1;strokeColor=#000000;dashed=1;" parent="1" source="54" target="56" edge="1">
          <mxGeometry relative="1" as="geometry" />
        </mxCell>
        <mxCell id="9" style="endArrow=block;endFill=1;strokeColor=#000000;" parent="1" source="3" target="2" edge="1">
          <mxGeometry relative="1" as="geometry" />
        </mxCell>
        <mxCell id="10" style="endArrow=block;endFill=1;strokeColor=#000000;" parent="1" source="4" target="2" edge="1">
          <mxGeometry relative="1" as="geometry" />
        </mxCell>
        <mxCell id="11" style="endArrow=block;endFill=1;strokeColor=#000000;" parent="1" source="5" target="2" edge="1">
          <mxGeometry relative="1" as="geometry" />
        </mxCell>
        <mxCell id="12" style="endArrow=block;endFill=1;strokeColor=#000000;" parent="1" source="6" target="2" edge="1">
          <mxGeometry relative="1" as="geometry" />
        </mxCell>
        <mxCell id="13" value="Usa" style="endArrow=block;endFill=1;strokeColor=#000000;dashed=1;" parent="1" source="2" target="7" edge="1">
          <mxGeometry relative="1" as="geometry" />
        </mxCell>
        <mxCell id="14" value="Usa" style="endArrow=block;endFill=1;strokeColor=#000000;dashed=1;" parent="1" source="2" target="8" edge="1">
          <mxGeometry relative="1" as="geometry" />
        </mxCell>
        <mxCell id="24" value="JDBC/ORM" style="endArrow=block;endFill=1;strokeColor=#000000;" parent="1" source="20" target="21" edge="1">
          <mxGeometry relative="1" as="geometry" />
        </mxCell>
        <mxCell id="25" value="REST/HTTP" style="endArrow=block;endFill=1;strokeColor=#000000;dashed=1;" parent="1" source="20" target="22" edge="1">
          <mxGeometry relative="1" as="geometry" />
        </mxCell>
        <mxCell id="26" value="REST/HTTP" style="endArrow=block;endFill=1;strokeColor=#000000;dashed=1;" parent="1" source="20" target="23" edge="1">
          <mxGeometry relative="1" as="geometry" />
        </mxCell>
        <mxCell id="27" value="API mymaps" style="endArrow=block;endFill=1;strokeColor=#000000;dashed=1;" parent="1" source="20" target="7" edge="1">
          <mxGeometry relative="1" as="geometry" />
        </mxCell>
        <mxCell id="28" value="Google Maps" style="endArrow=block;endFill=1;strokeColor=#000000;dashed=1;" parent="1" source="20" target="8" edge="1">
          <mxGeometry relative="1" as="geometry" />
        </mxCell>
        <mxCell id="36" value="Usa" style="endArrow=block;endFill=1;strokeColor=#000000;" parent="1" source="34" target="30" edge="1">
          <mxGeometry relative="1" as="geometry" />
        </mxCell>
        <mxCell id="37" value="Usa" style="endArrow=block;endFill=1;strokeColor=#000000;" parent="1" source="34" target="32" edge="1">
          <mxGeometry relative="1" as="geometry" />
        </mxCell>
        <mxCell id="38" value="Usa" style="endArrow=block;endFill=1;strokeColor=#000000;" parent="1" source="32" target="31" edge="1">
          <mxGeometry relative="1" as="geometry" />
        </mxCell>
        <mxCell id="39" value="Usa" style="endArrow=block;endFill=1;strokeColor=#000000;" parent="1" source="32" target="33" edge="1">
          <mxGeometry relative="1" as="geometry" />
        </mxCell>
        <mxCell id="40" value="Incluye recursos estáticos" style="endArrow=block;endFill=1;strokeColor=#000000;dashed=1;" parent="1" source="34" target="35" edge="1">
          <mxGeometry relative="1" as="geometry" />
        </mxCell>
      </root>
    </mxGraphModel>
  </diagram>
  <diagram id="LTJDgj2-6xQUVFfOMvB9" name="Página-2">
    <mxGraphModel dx="872" dy="489" grid="1" gridSize="10" guides="1" tooltips="1" connect="1" arrows="1" fold="1" page="1" pageScale="1" pageWidth="827" pageHeight="1169" math="0" shadow="0">
      <root>
        <mxCell id="0" />
        <mxCell id="1" parent="0" />
        <mxCell id="xy4HOPIGf3cJa-b_2TDP-1" style="edgeStyle=orthogonalEdgeStyle;rounded=0;orthogonalLoop=1;jettySize=auto;html=1;entryX=0;entryY=0.5;entryDx=0;entryDy=0;entryPerimeter=0;" edge="1" parent="1" source="xy4HOPIGf3cJa-b_2TDP-2" target="xy4HOPIGf3cJa-b_2TDP-11">
          <mxGeometry relative="1" as="geometry">
            <mxPoint x="510" y="640" as="targetPoint" />
          </mxGeometry>
        </mxCell>
        <object placeholders="1" c4Name="ADMINISTRADOR" c4Type="admin" c4Description="Administradores del sitio" label="&lt;font style=&quot;font-size: 16px&quot;&gt;&lt;b&gt;%c4Name%&lt;/b&gt;&lt;/font&gt;&lt;div&gt;[%c4Type%]&lt;/div&gt;&lt;br&gt;&lt;div&gt;&lt;font style=&quot;font-size: 11px&quot;&gt;&lt;font color=&quot;#cccccc&quot;&gt;%c4Description%&lt;/font&gt;&lt;/div&gt;" id="xy4HOPIGf3cJa-b_2TDP-2">
          <mxCell style="html=1;fontSize=11;dashed=0;whiteSpace=wrap;fillColor=#083F75;strokeColor=#06315C;fontColor=#ffffff;shape=mxgraph.c4.person2;align=center;metaEdit=1;points=[[0.5,0,0],[1,0.5,0],[1,0.75,0],[0.75,1,0],[0.5,1,0],[0.25,1,0],[0,0.75,0],[0,0.5,0]];resizable=0;gradientColor=default;" vertex="1" parent="1">
            <mxGeometry x="340" y="310" width="200" height="180" as="geometry" />
          </mxCell>
        </object>
        <object placeholders="1" c4Name="Empleado" c4Type="empleado" c4Description="Vendedores/empleados del E-commerce" label="&lt;font style=&quot;font-size: 16px&quot;&gt;&lt;b&gt;%c4Name%&lt;/b&gt;&lt;/font&gt;&lt;div&gt;[%c4Type%]&lt;/div&gt;&lt;br&gt;&lt;div&gt;&lt;font style=&quot;font-size: 11px&quot;&gt;&lt;font&gt;%c4Description%&lt;/font&gt;&lt;/font&gt;&lt;/div&gt;" id="xy4HOPIGf3cJa-b_2TDP-3">
          <mxCell style="html=1;fontSize=11;dashed=0;whiteSpace=wrap;fillColor=#fff2cc;strokeColor=#d6b656;shape=mxgraph.c4.person2;align=center;metaEdit=1;points=[[0.5,0,0],[1,0.5,0],[1,0.75,0],[0.75,1,0],[0.5,1,0],[0.25,1,0],[0,0.75,0],[0,0.5,0]];resizable=0;fontColor=#000033;" vertex="1" parent="1">
            <mxGeometry x="560" y="310" width="200" height="180" as="geometry" />
          </mxCell>
        </object>
        <mxCell id="xy4HOPIGf3cJa-b_2TDP-4" style="edgeStyle=orthogonalEdgeStyle;rounded=0;orthogonalLoop=1;jettySize=auto;html=1;entryX=1;entryY=0.75;entryDx=0;entryDy=0;entryPerimeter=0;exitX=0.045;exitY=0.933;exitDx=0;exitDy=0;exitPerimeter=0;" edge="1" parent="1" source="xy4HOPIGf3cJa-b_2TDP-5" target="xy4HOPIGf3cJa-b_2TDP-11">
          <mxGeometry relative="1" as="geometry">
            <mxPoint x="860" y="660" as="targetPoint" />
            <Array as="points">
              <mxPoint x="800" y="478" />
              <mxPoint x="800" y="650" />
            </Array>
          </mxGeometry>
        </mxCell>
        <object placeholders="1" c4Name="CLIENTE" c4Type="cliente" c4Description="Clientes que visiten el sitio" label="&lt;font style=&quot;font-size: 16px&quot;&gt;&lt;b&gt;%c4Name%&lt;/b&gt;&lt;/font&gt;&lt;div&gt;[%c4Type%]&lt;/div&gt;&lt;br&gt;&lt;div&gt;&lt;font style=&quot;font-size: 11px&quot;&gt;&lt;font&gt;%c4Description%&lt;/font&gt;&lt;/font&gt;&lt;/div&gt;" id="xy4HOPIGf3cJa-b_2TDP-5">
          <mxCell style="html=1;fontSize=11;dashed=0;whiteSpace=wrap;fillColor=#ffe6cc;strokeColor=#d79b00;shape=mxgraph.c4.person2;align=center;metaEdit=1;points=[[0.5,0,0],[1,0.5,0],[1,0.75,0],[0.75,1,0],[0.5,1,0],[0.25,1,0],[0,0.75,0],[0,0.5,0]];resizable=0;fontColor=#000033;" vertex="1" parent="1">
            <mxGeometry x="790" y="310" width="200" height="180" as="geometry" />
          </mxCell>
        </object>
        <mxCell id="xy4HOPIGf3cJa-b_2TDP-6" style="edgeStyle=orthogonalEdgeStyle;rounded=0;orthogonalLoop=1;jettySize=auto;html=1;" edge="1" parent="1" source="xy4HOPIGf3cJa-b_2TDP-7" target="xy4HOPIGf3cJa-b_2TDP-13">
          <mxGeometry relative="1" as="geometry" />
        </mxCell>
        <object placeholders="1" c4Name="INVITADO" c4Type="Invitado" c4Description="Invitados del sitio (no logeados)" label="&lt;font style=&quot;font-size: 16px&quot;&gt;&lt;b&gt;%c4Name%&lt;/b&gt;&lt;/font&gt;&lt;div&gt;[%c4Type%]&lt;/div&gt;&lt;br&gt;&lt;div&gt;&lt;font style=&quot;font-size: 11px&quot;&gt;&lt;font&gt;%c4Description%&lt;/font&gt;&lt;/font&gt;&lt;/div&gt;" id="xy4HOPIGf3cJa-b_2TDP-7">
          <mxCell style="html=1;fontSize=11;dashed=0;whiteSpace=wrap;fillColor=#e1d5e7;strokeColor=#9673a6;shape=mxgraph.c4.person2;align=center;metaEdit=1;points=[[0.5,0,0],[1,0.5,0],[1,0.75,0],[0.75,1,0],[0.5,1,0],[0.25,1,0],[0,0.75,0],[0,0.5,0]];resizable=0;fontColor=default;" vertex="1" parent="1">
            <mxGeometry x="1120" y="310" width="200" height="180" as="geometry" />
          </mxCell>
        </object>
        <object placeholders="1" c4Name="CONTEXTO" c4Type="ContainerScopeBoundary" c4Application="Contexto" label="&lt;font style=&quot;font-size: 16px&quot;&gt;&lt;b&gt;&lt;div style=&quot;text-align: left&quot;&gt;%c4Name%&lt;/div&gt;&lt;/b&gt;&lt;/font&gt;&lt;div style=&quot;text-align: left&quot;&gt;[%c4Application%]&lt;/div&gt;" id="xy4HOPIGf3cJa-b_2TDP-8">
          <mxCell style="rounded=1;fontSize=11;whiteSpace=wrap;html=1;dashed=1;arcSize=20;fillColor=none;strokeColor=#666666;fontColor=#333333;labelBackgroundColor=none;align=left;verticalAlign=bottom;labelBorderColor=none;spacingTop=0;spacing=10;dashPattern=8 4;metaEdit=1;rotatable=0;perimeter=rectanglePerimeter;noLabel=0;labelPadding=0;allowArrows=0;connectable=0;expand=0;recursiveResize=0;editable=1;pointerEvents=0;absoluteArcSize=1;points=[[0.25,0,0],[0.5,0,0],[0.75,0,0],[1,0.25,0],[1,0.5,0],[1,0.75,0],[0.75,1,0],[0.5,1,0],[0.25,1,0],[0,0.75,0],[0,0.5,0],[0,0.25,0]];" vertex="1" parent="1">
            <mxGeometry x="310" y="520" width="1080" height="210" as="geometry" />
          </mxCell>
        </object>
        <object placeholders="1" c4Name="Container" c4Type="ContainerScopeBoundary" c4Application="CONTAINER" label="&lt;font style=&quot;font-size: 16px&quot;&gt;&lt;b&gt;&lt;div style=&quot;text-align: left&quot;&gt;%c4Name%&lt;/div&gt;&lt;/b&gt;&lt;/font&gt;&lt;div style=&quot;text-align: left&quot;&gt;[%c4Application%]&lt;/div&gt;" id="xy4HOPIGf3cJa-b_2TDP-9">
          <mxCell style="rounded=1;fontSize=11;whiteSpace=wrap;html=1;dashed=1;arcSize=20;fillColor=none;strokeColor=#666666;fontColor=#333333;labelBackgroundColor=none;align=left;verticalAlign=bottom;labelBorderColor=none;spacingTop=0;spacing=10;dashPattern=8 4;metaEdit=1;rotatable=0;perimeter=rectanglePerimeter;noLabel=0;labelPadding=0;allowArrows=0;connectable=0;expand=0;recursiveResize=0;editable=1;pointerEvents=0;absoluteArcSize=1;points=[[0.25,0,0],[0.5,0,0],[0.75,0,0],[1,0.25,0],[1,0.5,0],[1,0.75,0],[0.75,1,0],[0.5,1,0],[0.25,1,0],[0,0.75,0],[0,0.5,0],[0,0.25,0]];" vertex="1" parent="1">
            <mxGeometry x="310" y="750" width="1080" height="210" as="geometry" />
          </mxCell>
        </object>
        <object placeholders="1" c4Name="COMPONENTES" c4Type="ContainerScopeBoundary" c4Application="Componentes" label="&lt;font style=&quot;font-size: 16px&quot;&gt;&lt;b&gt;&lt;div style=&quot;text-align: left&quot;&gt;%c4Name%&lt;/div&gt;&lt;/b&gt;&lt;/font&gt;&lt;div style=&quot;text-align: left&quot;&gt;[%c4Application%]&lt;/div&gt;" id="xy4HOPIGf3cJa-b_2TDP-10">
          <mxCell style="rounded=1;fontSize=11;whiteSpace=wrap;html=1;dashed=1;arcSize=20;fillColor=none;strokeColor=#666666;fontColor=#333333;labelBackgroundColor=none;align=left;verticalAlign=bottom;labelBorderColor=none;spacingTop=0;spacing=10;dashPattern=8 4;metaEdit=1;rotatable=0;perimeter=rectanglePerimeter;noLabel=0;labelPadding=0;allowArrows=0;connectable=0;expand=0;recursiveResize=0;editable=1;pointerEvents=0;absoluteArcSize=1;points=[[0.25,0,0],[0.5,0,0],[0.75,0,0],[1,0.25,0],[1,0.5,0],[1,0.75,0],[0.75,1,0],[0.5,1,0],[0.25,1,0],[0,0.75,0],[0,0.5,0],[0,0.25,0]];" vertex="1" parent="1">
            <mxGeometry x="310" y="990" width="1080" height="610" as="geometry" />
          </mxCell>
        </object>
        <object placeholders="1" c4Name="LOGIN" c4Type="Frameworks y Motorde base de datos" c4Technology="Bootsrap,PG admin 4, Google maps" c4Description="Los Usuarios: Administrador, Empleado, deben logearse para acceder a sus respectivos roles y funciones" label="&lt;font style=&quot;font-size: 16px&quot;&gt;&lt;b&gt;%c4Name%&lt;/b&gt;&lt;/font&gt;&lt;div&gt;[%c4Type%: %c4Technology%]&lt;/div&gt;&lt;br&gt;&lt;div&gt;&lt;font style=&quot;font-size: 11px&quot;&gt;&lt;font&gt;%c4Description%&lt;/font&gt;&lt;/font&gt;&lt;/div&gt;" id="xy4HOPIGf3cJa-b_2TDP-11">
          <mxCell style="rounded=1;whiteSpace=wrap;html=1;fontSize=11;labelBackgroundColor=none;fillColor=#e1d5e7;align=center;arcSize=10;strokeColor=#9673a6;metaEdit=1;resizable=0;points=[[0.25,0,0],[0.5,0,0],[0.75,0,0],[1,0.25,0],[1,0.5,0],[1,0.75,0],[0.75,1,0],[0.5,1,0],[0.25,1,0],[0,0.75,0],[0,0.5,0],[0,0.25,0]];fontColor=default;" vertex="1" parent="1">
            <mxGeometry x="460" y="560" width="240" height="120" as="geometry" />
          </mxCell>
        </object>
        <mxCell id="xy4HOPIGf3cJa-b_2TDP-12" style="edgeStyle=orthogonalEdgeStyle;rounded=0;orthogonalLoop=1;jettySize=auto;html=1;entryX=1;entryY=0.5;entryDx=0;entryDy=0;entryPerimeter=0;" edge="1" parent="1" source="xy4HOPIGf3cJa-b_2TDP-13" target="xy4HOPIGf3cJa-b_2TDP-20">
          <mxGeometry relative="1" as="geometry">
            <mxPoint x="1340" y="870" as="targetPoint" />
            <Array as="points">
              <mxPoint x="1380" y="630" />
              <mxPoint x="1380" y="850" />
            </Array>
          </mxGeometry>
        </mxCell>
        <object placeholders="1" c4Name="E-Commerce- PARADISE STORE" c4Type="Container" c4Technology="Bootsrap,PG admin 4, Google maps" c4Description="INDEX,PRODUCTOS,CATEGORIA" label="&lt;font style=&quot;font-size: 16px&quot;&gt;&lt;b&gt;%c4Name%&lt;/b&gt;&lt;/font&gt;&lt;div&gt;[%c4Type%: %c4Technology%]&lt;/div&gt;&lt;br&gt;&lt;div&gt;&lt;font style=&quot;font-size: 11px&quot;&gt;&lt;font color=&quot;#E6E6E6&quot;&gt;%c4Description%&lt;/font&gt;&lt;/div&gt;" id="xy4HOPIGf3cJa-b_2TDP-13">
          <mxCell style="rounded=1;whiteSpace=wrap;html=1;fontSize=11;labelBackgroundColor=none;fillColor=#6a00ff;fontColor=#ffffff;align=center;arcSize=10;strokeColor=#3700CC;metaEdit=1;resizable=0;points=[[0.25,0,0],[0.5,0,0],[0.75,0,0],[1,0.25,0],[1,0.5,0],[1,0.75,0],[0.75,1,0],[0.5,1,0],[0.25,1,0],[0,0.75,0],[0,0.5,0],[0,0.25,0]];" vertex="1" parent="1">
            <mxGeometry x="1090" y="560" width="240" height="120" as="geometry" />
          </mxCell>
        </object>
        <mxCell id="xy4HOPIGf3cJa-b_2TDP-14" style="edgeStyle=orthogonalEdgeStyle;rounded=0;orthogonalLoop=1;jettySize=auto;html=1;" edge="1" parent="1" source="xy4HOPIGf3cJa-b_2TDP-3" target="xy4HOPIGf3cJa-b_2TDP-11">
          <mxGeometry relative="1" as="geometry">
            <Array as="points" />
          </mxGeometry>
        </mxCell>
        <object placeholders="1" c4Type="Relationship" c4Description="SI ENTRA   A CARRITO DEBE LOGEARSE " label="&lt;div style=&quot;text-align: left&quot;&gt;&lt;div style=&quot;text-align: center&quot;&gt;&lt;b&gt;%c4Description%&lt;/b&gt;&lt;/div&gt;&lt;/div&gt;" id="xy4HOPIGf3cJa-b_2TDP-15">
          <mxCell style="endArrow=blockThin;html=1;fontSize=10;fontColor=#FF0000;strokeWidth=1;endFill=1;strokeColor=#828282;elbow=vertical;metaEdit=1;endSize=14;startSize=14;jumpStyle=arc;jumpSize=16;rounded=0;edgeStyle=orthogonalEdgeStyle;" edge="1" parent="1" source="xy4HOPIGf3cJa-b_2TDP-13">
            <mxGeometry width="240" relative="1" as="geometry">
              <mxPoint x="764" y="620" as="sourcePoint" />
              <mxPoint x="700" y="620" as="targetPoint" />
            </mxGeometry>
          </mxCell>
        </object>
        <object placeholders="1" c4Type="Relationship" c4Description="lOS ADMINISTRADORES/EMPLEADOS/CLIENTES YA LOGEADOS DEBEN PODER VISITAR EL SITIO" label="&lt;div style=&quot;text-align: left&quot;&gt;&lt;div style=&quot;text-align: center&quot;&gt;&lt;b&gt;%c4Description%&lt;/b&gt;&lt;/div&gt;" id="xy4HOPIGf3cJa-b_2TDP-16">
          <mxCell style="endArrow=blockThin;html=1;fontSize=10;fontColor=#404040;strokeWidth=1;endFill=1;strokeColor=#828282;elbow=vertical;metaEdit=1;endSize=14;startSize=14;jumpStyle=arc;jumpSize=16;rounded=0;edgeStyle=orthogonalEdgeStyle;entryX=0.5;entryY=1;entryDx=0;entryDy=0;entryPerimeter=0;" edge="1" parent="1" target="xy4HOPIGf3cJa-b_2TDP-13">
            <mxGeometry x="-0.2187" y="-10" width="240" relative="1" as="geometry">
              <mxPoint x="560" y="680" as="sourcePoint" />
              <mxPoint x="1120" y="690" as="targetPoint" />
              <Array as="points">
                <mxPoint x="560" y="700" />
                <mxPoint x="1270" y="700" />
                <mxPoint x="1270" y="690" />
                <mxPoint x="1124" y="690" />
              </Array>
              <mxPoint as="offset" />
            </mxGeometry>
          </mxCell>
        </object>
        <mxCell id="xy4HOPIGf3cJa-b_2TDP-17" style="edgeStyle=orthogonalEdgeStyle;rounded=0;orthogonalLoop=1;jettySize=auto;html=1;" edge="1" parent="1" source="xy4HOPIGf3cJa-b_2TDP-18" target="xy4HOPIGf3cJa-b_2TDP-25">
          <mxGeometry relative="1" as="geometry">
            <Array as="points">
              <mxPoint x="440" y="970" />
              <mxPoint x="440" y="970" />
            </Array>
          </mxGeometry>
        </mxCell>
        <object placeholders="1" c4Name="APACHE TOMCAT 9" c4Type="Container" c4Technology="Java Servlet 4.0,JavaServer Pages 2.3, Java Unified Expression Language 3.0 y Java API para WebSocket 1.0" c4Description="Servidor Web para Java" label="&lt;font style=&quot;font-size: 16px&quot;&gt;&lt;b&gt;%c4Name%&lt;/b&gt;&lt;/font&gt;&lt;div&gt;[%c4Type%: %c4Technology%]&lt;/div&gt;&lt;br&gt;&lt;div&gt;&lt;font style=&quot;font-size: 11px&quot;&gt;&lt;font&gt;%c4Description%&lt;/font&gt;&lt;/font&gt;&lt;/div&gt;" id="xy4HOPIGf3cJa-b_2TDP-18">
          <mxCell style="rounded=1;whiteSpace=wrap;html=1;fontSize=11;labelBackgroundColor=none;fillColor=#f0a30a;fontColor=#000000;align=center;arcSize=10;strokeColor=#BD7000;metaEdit=1;resizable=0;points=[[0.25,0,0],[0.5,0,0],[0.75,0,0],[1,0.25,0],[1,0.5,0],[1,0.75,0],[0.75,1,0],[0.5,1,0],[0.25,1,0],[0,0.75,0],[0,0.5,0],[0,0.25,0]];" vertex="1" parent="1">
            <mxGeometry x="320" y="790" width="240" height="120" as="geometry" />
          </mxCell>
        </object>
        <mxCell id="xy4HOPIGf3cJa-b_2TDP-19" style="edgeStyle=orthogonalEdgeStyle;rounded=0;orthogonalLoop=1;jettySize=auto;html=1;exitX=0;exitY=0.5;exitDx=0;exitDy=0;exitPerimeter=0;" edge="1" parent="1" source="xy4HOPIGf3cJa-b_2TDP-20" target="xy4HOPIGf3cJa-b_2TDP-21">
          <mxGeometry relative="1" as="geometry" />
        </mxCell>
        <object placeholders="1" c4Name="HTML5, GOOGLE API(MAP) " c4Type="Container" c4Technology="HTML, CSS y JavaScript" c4Description="HTML5, CSS, JS PARA EL CUERPO Y FUNCIONES DEL SITIO WEB" label="&lt;font style=&quot;font-size: 16px&quot;&gt;&lt;b&gt;%c4Name%&lt;/b&gt;&lt;/font&gt;&lt;div&gt;[%c4Type%: %c4Technology%]&lt;/div&gt;&lt;br&gt;&lt;div&gt;&lt;font style=&quot;font-size: 11px&quot;&gt;&lt;font color=&quot;#E6E6E6&quot;&gt;%c4Description%&lt;/font&gt;&lt;/div&gt;" id="xy4HOPIGf3cJa-b_2TDP-20">
          <mxCell style="rounded=1;whiteSpace=wrap;html=1;fontSize=11;labelBackgroundColor=none;fillColor=#a0522d;fontColor=#ffffff;align=center;arcSize=10;strokeColor=#6D1F00;metaEdit=1;resizable=0;points=[[0.25,0,0],[0.5,0,0],[0.75,0,0],[1,0.25,0],[1,0.5,0],[1,0.75,0],[0.75,1,0],[0.5,1,0],[0.25,1,0],[0,0.75,0],[0,0.5,0],[0,0.25,0]];" vertex="1" parent="1">
            <mxGeometry x="1120" y="790" width="240" height="120" as="geometry" />
          </mxCell>
        </object>
        <object placeholders="1" c4Name="BOOTSTRAP" c4Type="Container" c4Technology="HTML, CSS y JavaScript" c4Description="bootstrap para diseños ya definidos en e sitio (administrar productos)" label="&lt;font style=&quot;font-size: 16px&quot;&gt;&lt;b&gt;%c4Name%&lt;/b&gt;&lt;/font&gt;&lt;div&gt;[%c4Type%: %c4Technology%]&lt;/div&gt;&lt;br&gt;&lt;div&gt;&lt;font style=&quot;font-size: 11px&quot;&gt;&lt;font&gt;%c4Description%&lt;/font&gt;&lt;/font&gt;&lt;/div&gt;" id="xy4HOPIGf3cJa-b_2TDP-21">
          <mxCell style="rounded=1;whiteSpace=wrap;html=1;fontSize=11;labelBackgroundColor=none;fillColor=#C22ED9;fontColor=#000000;align=center;arcSize=10;strokeColor=#0E7DAD;metaEdit=1;resizable=0;points=[[0.25,0,0],[0.5,0,0],[0.75,0,0],[1,0.25,0],[1,0.5,0],[1,0.75,0],[0.75,1,0],[0.5,1,0],[0.25,1,0],[0,0.75,0],[0,0.5,0],[0,0.25,0]];" vertex="1" parent="1">
            <mxGeometry x="860" y="790" width="240" height="120" as="geometry" />
          </mxCell>
        </object>
        <mxCell id="xy4HOPIGf3cJa-b_2TDP-22" style="edgeStyle=orthogonalEdgeStyle;rounded=0;orthogonalLoop=1;jettySize=auto;html=1;entryX=1;entryY=0.5;entryDx=0;entryDy=0;entryPerimeter=0;" edge="1" parent="1" source="xy4HOPIGf3cJa-b_2TDP-23" target="xy4HOPIGf3cJa-b_2TDP-26">
          <mxGeometry relative="1" as="geometry">
            <mxPoint x="1260" y="1320" as="targetPoint" />
            <Array as="points">
              <mxPoint x="1260" y="1320" />
            </Array>
          </mxGeometry>
        </mxCell>
        <object placeholders="1" c4Name="GESTION DE PRODUCTOS" c4Type="Container" c4Technology="e.g. JavaScript,Java, Pgadmin." c4Description="La gestión de productos incluye todoslos productos del sitio, su compra(carrito), añadir, eliminar, de acuerdo a cada rol de usuario." label="&lt;font style=&quot;font-size: 16px&quot;&gt;&lt;b&gt;%c4Name%&lt;/b&gt;&lt;/font&gt;&lt;div&gt;[%c4Type%:&amp;nbsp;%c4Technology%]&lt;/div&gt;&lt;br&gt;&lt;div&gt;&lt;font style=&quot;font-size: 11px&quot;&gt;&lt;font&gt;%c4Description%&lt;/font&gt;&lt;/font&gt;&lt;/div&gt;" id="xy4HOPIGf3cJa-b_2TDP-23">
          <mxCell style="shape=mxgraph.c4.webBrowserContainer2;whiteSpace=wrap;html=1;boundedLbl=1;rounded=0;labelBackgroundColor=none;strokeColor=#36393d;fillColor=#ffff88;strokeColor=#118ACD;strokeColor2=#0E7DAD;fontSize=12;align=center;metaEdit=1;points=[[0.5,0,0],[1,0.25,0],[1,0.5,0],[1,0.75,0],[0.5,1,0],[0,0.75,0],[0,0.5,0],[0,0.25,0]];resizable=0;" vertex="1" parent="1">
            <mxGeometry x="1140" y="1010" width="240" height="160" as="geometry" />
          </mxCell>
        </object>
        <mxCell id="xy4HOPIGf3cJa-b_2TDP-24" style="edgeStyle=orthogonalEdgeStyle;rounded=0;orthogonalLoop=1;jettySize=auto;html=1;exitX=0.5;exitY=1;exitDx=0;exitDy=0;exitPerimeter=0;entryX=0;entryY=0.5;entryDx=0;entryDy=0;entryPerimeter=0;" edge="1" parent="1" source="xy4HOPIGf3cJa-b_2TDP-25" target="xy4HOPIGf3cJa-b_2TDP-26">
          <mxGeometry relative="1" as="geometry">
            <mxPoint x="440" y="1320" as="targetPoint" />
          </mxGeometry>
        </mxCell>
        <object placeholders="1" c4Name="AUTENTIFICACION" c4Type="Container" c4Technology="JavaScript,Java, Pgamdin." c4Description="Scripts JS que ayuden a la validación de usuarios para sus respectivos LOGIN y su rol en general" label="&lt;font style=&quot;font-size: 16px&quot;&gt;&lt;b&gt;%c4Name%&lt;/b&gt;&lt;/font&gt;&lt;div&gt;[%c4Type%:&amp;nbsp;%c4Technology%]&lt;/div&gt;&lt;br&gt;&lt;div&gt;&lt;font style=&quot;font-size: 11px&quot;&gt;&lt;font&gt;%c4Description%&lt;/font&gt;&lt;/font&gt;&lt;/div&gt;" id="xy4HOPIGf3cJa-b_2TDP-25">
          <mxCell style="shape=mxgraph.c4.webBrowserContainer2;whiteSpace=wrap;html=1;boundedLbl=1;rounded=0;labelBackgroundColor=none;strokeColor=#36393d;fillColor=#ffff88;strokeColor=#118ACD;strokeColor2=#0E7DAD;fontSize=12;align=center;metaEdit=1;points=[[0.5,0,0],[1,0.25,0],[1,0.5,0],[1,0.75,0],[0.5,1,0],[0,0.75,0],[0,0.5,0],[0,0.25,0]];resizable=0;" vertex="1" parent="1">
            <mxGeometry x="320" y="1010" width="240" height="160" as="geometry" />
          </mxCell>
        </object>
        <object placeholders="1" c4Name="BD_PRODUCTOS" c4Type="Container" c4Technology="Base de datos Postgresql" c4Description="En esta base de datos se gestiona toda la información de Administradores, Empleados, Usuarios, la gestión de productos en general." label="&lt;font&gt;&lt;b&gt;%c4Name%&lt;/b&gt;&lt;/font&gt;&lt;div&gt;[%c4Type%:&amp;nbsp;%c4Technology%]&lt;/div&gt;&lt;br&gt;&lt;div&gt;&lt;font&gt;&lt;font&gt;%c4Description%&lt;/font&gt;&lt;/font&gt;&lt;/div&gt;" id="xy4HOPIGf3cJa-b_2TDP-26">
          <mxCell style="shape=cylinder3;size=15;whiteSpace=wrap;html=1;boundedLbl=1;rounded=0;labelBackgroundColor=none;fillColor=#f8cecc;fontSize=11;align=center;strokeColor=#b85450;metaEdit=1;points=[[0.5,0,0],[1,0.25,0],[1,0.5,0],[1,0.75,0],[0.5,1,0],[0,0.75,0],[0,0.5,0],[0,0.25,0]];resizable=0;gradientColor=#ea6b66;" vertex="1" parent="1">
            <mxGeometry x="720" y="1260" width="240" height="120" as="geometry" />
          </mxCell>
        </object>
        <object placeholders="1" c4Name="POSTGRESQL PGADMIN" c4Type="Container" c4Technology="Lenguaje SQL, compatible con Java" c4Description="Esto es el servicio de BDD, no la base como tal" label="&lt;font style=&quot;font-size: 16px&quot;&gt;&lt;b&gt;%c4Name%&lt;/b&gt;&lt;/font&gt;&lt;div&gt;[%c4Type%: %c4Technology%]&lt;/div&gt;&lt;br&gt;&lt;div&gt;&lt;font style=&quot;font-size: 11px&quot;&gt;&lt;font&gt;%c4Description%&lt;/font&gt;&lt;/font&gt;&lt;/div&gt;" id="xy4HOPIGf3cJa-b_2TDP-27">
          <mxCell style="rounded=1;whiteSpace=wrap;html=1;fontSize=11;labelBackgroundColor=none;fillColor=#d5e8d4;align=center;arcSize=10;strokeColor=#82b366;metaEdit=1;resizable=0;points=[[0.25,0,0],[0.5,0,0],[0.75,0,0],[1,0.25,0],[1,0.5,0],[1,0.75,0],[0.75,1,0],[0.5,1,0],[0.25,1,0],[0,0.75,0],[0,0.5,0],[0,0.25,0]];gradientColor=#97d077;fontColor=default;" vertex="1" parent="1">
            <mxGeometry x="590" y="790" width="240" height="120" as="geometry" />
          </mxCell>
        </object>
        <mxCell id="xy4HOPIGf3cJa-b_2TDP-28" style="edgeStyle=orthogonalEdgeStyle;rounded=0;orthogonalLoop=1;jettySize=auto;html=1;exitX=0;exitY=0.5;exitDx=0;exitDy=0;exitPerimeter=0;entryX=1;entryY=0.5;entryDx=0;entryDy=0;entryPerimeter=0;" edge="1" parent="1" source="xy4HOPIGf3cJa-b_2TDP-21" target="xy4HOPIGf3cJa-b_2TDP-27">
          <mxGeometry relative="1" as="geometry" />
        </mxCell>
        <mxCell id="xy4HOPIGf3cJa-b_2TDP-29" style="edgeStyle=orthogonalEdgeStyle;rounded=0;orthogonalLoop=1;jettySize=auto;html=1;exitX=0;exitY=0.5;exitDx=0;exitDy=0;exitPerimeter=0;entryX=1;entryY=0.5;entryDx=0;entryDy=0;entryPerimeter=0;" edge="1" parent="1" source="xy4HOPIGf3cJa-b_2TDP-27" target="xy4HOPIGf3cJa-b_2TDP-18">
          <mxGeometry relative="1" as="geometry" />
        </mxCell>
        <object placeholders="1" c4Type="Relationship" c4Description="La autentificación dará acceso a la gestión de los productos en base al rol que el usuario tenga durante la conexión. " label="&lt;div style=&quot;text-align: left&quot;&gt;&lt;div style=&quot;text-align: center&quot;&gt;&lt;b&gt;%c4Description%&lt;/b&gt;&lt;/div&gt;" id="xy4HOPIGf3cJa-b_2TDP-30">
          <mxCell style="endArrow=blockThin;html=1;fontSize=10;fontColor=#404040;strokeWidth=1;endFill=1;strokeColor=#828282;elbow=vertical;metaEdit=1;endSize=14;startSize=14;jumpStyle=arc;jumpSize=16;rounded=0;edgeStyle=orthogonalEdgeStyle;entryX=0.017;entryY=0.194;entryDx=0;entryDy=0;entryPerimeter=0;exitX=0.983;exitY=0.181;exitDx=0;exitDy=0;exitPerimeter=0;" edge="1" parent="1" source="xy4HOPIGf3cJa-b_2TDP-25" target="xy4HOPIGf3cJa-b_2TDP-23">
            <mxGeometry width="240" relative="1" as="geometry">
              <mxPoint x="580" y="1040" as="sourcePoint" />
              <mxPoint x="820" y="1040" as="targetPoint" />
            </mxGeometry>
          </mxCell>
        </object>
        <object placeholders="1" c4Name="JAVA" c4Type="Container" c4Technology="e.g. JavaScript, Angular etc." c4Description="Lenguaje de programación que maneja el sitio para la administración de clases y paquetes." label="&lt;font style=&quot;font-size: 16px&quot;&gt;&lt;b&gt;%c4Name%&lt;/b&gt;&lt;/font&gt;&lt;div&gt;[%c4Type%:&amp;nbsp;%c4Technology%]&lt;/div&gt;&lt;br&gt;&lt;div&gt;&lt;font style=&quot;font-size: 11px&quot;&gt;&lt;font&gt;%c4Description%&lt;/font&gt;&lt;/font&gt;&lt;/div&gt;" id="xy4HOPIGf3cJa-b_2TDP-31">
          <mxCell style="shape=mxgraph.c4.webBrowserContainer2;whiteSpace=wrap;html=1;boundedLbl=1;rounded=0;labelBackgroundColor=none;strokeColor=#36393d;fillColor=#ffcc99;strokeColor=#118ACD;strokeColor2=#0E7DAD;fontSize=12;align=center;metaEdit=1;points=[[0.5,0,0],[1,0.25,0],[1,0.5,0],[1,0.75,0],[0.5,1,0],[0,0.75,0],[0,0.5,0],[0,0.25,0]];resizable=0;fontColor=default;" vertex="1" parent="1">
            <mxGeometry x="730" y="1080" width="240" height="160" as="geometry" />
          </mxCell>
        </object>
        <object placeholders="1" c4Type="Relationship" c4Description="Paquetes de las clases JAVA" label="&lt;div style=&quot;text-align: left&quot;&gt;&lt;div style=&quot;text-align: center&quot;&gt;&lt;b&gt;%c4Description%&lt;/b&gt;&lt;/div&gt;" id="xy4HOPIGf3cJa-b_2TDP-32">
          <mxCell style="endArrow=blockThin;html=1;fontSize=10;fontColor=#404040;strokeWidth=1;endFill=1;strokeColor=#828282;elbow=vertical;metaEdit=1;endSize=14;startSize=14;jumpStyle=arc;jumpSize=16;rounded=0;edgeStyle=orthogonalEdgeStyle;" edge="1" parent="1">
            <mxGeometry x="-0.1764" y="10" width="240" relative="1" as="geometry">
              <mxPoint x="560" y="1120" as="sourcePoint" />
              <mxPoint x="730" y="1120" as="targetPoint" />
              <Array as="points">
                <mxPoint x="580" y="1120" />
                <mxPoint x="580" y="1120" />
              </Array>
              <mxPoint as="offset" />
            </mxGeometry>
          </mxCell>
        </object>
        <object placeholders="1" c4Type="Relationship" c4Description="Paquetes de las clases JAVA" label="&lt;div style=&quot;text-align: left&quot;&gt;&lt;div style=&quot;text-align: center&quot;&gt;&lt;b&gt;%c4Description%&lt;/b&gt;&lt;/div&gt;" id="xy4HOPIGf3cJa-b_2TDP-33">
          <mxCell style="endArrow=blockThin;html=1;fontSize=10;fontColor=#404040;strokeWidth=1;endFill=1;strokeColor=#828282;elbow=vertical;metaEdit=1;endSize=14;startSize=14;jumpStyle=arc;jumpSize=16;rounded=0;edgeStyle=orthogonalEdgeStyle;exitX=0;exitY=0.688;exitDx=0;exitDy=0;exitPerimeter=0;entryX=1;entryY=0.25;entryDx=0;entryDy=0;entryPerimeter=0;" edge="1" parent="1" source="xy4HOPIGf3cJa-b_2TDP-23" target="xy4HOPIGf3cJa-b_2TDP-31">
            <mxGeometry x="-0.0592" y="-10" width="240" relative="1" as="geometry">
              <mxPoint x="1004" y="1250" as="sourcePoint" />
              <mxPoint x="1244" y="1250" as="targetPoint" />
              <mxPoint as="offset" />
            </mxGeometry>
          </mxCell>
        </object>
        <mxCell id="xy4HOPIGf3cJa-b_2TDP-34" style="edgeStyle=orthogonalEdgeStyle;rounded=0;orthogonalLoop=1;jettySize=auto;html=1;exitX=0.5;exitY=1;exitDx=0;exitDy=0;exitPerimeter=0;entryX=0.542;entryY=0;entryDx=0;entryDy=0;entryPerimeter=0;" edge="1" parent="1" source="xy4HOPIGf3cJa-b_2TDP-31" target="xy4HOPIGf3cJa-b_2TDP-26">
          <mxGeometry relative="1" as="geometry" />
        </mxCell>
        <object placeholders="1" c4Name="BCK_BD_PRODUCTOS" c4Type="Container" c4Technology="Base de datos Postgresql" c4Description="BACKUP de la BD_PRODUCTOS" label="&lt;font&gt;&lt;b&gt;%c4Name%&lt;/b&gt;&lt;/font&gt;&lt;div&gt;[%c4Type%:&amp;nbsp;%c4Technology%]&lt;/div&gt;&lt;br&gt;&lt;div&gt;&lt;font&gt;&lt;font&gt;%c4Description%&lt;/font&gt;&lt;/font&gt;&lt;/div&gt;" id="xy4HOPIGf3cJa-b_2TDP-35">
          <mxCell style="shape=cylinder3;size=15;whiteSpace=wrap;html=1;boundedLbl=1;rounded=0;labelBackgroundColor=none;fillColor=#e6d0de;fontSize=11;align=center;strokeColor=#996185;metaEdit=1;points=[[0.5,0,0],[1,0.25,0],[1,0.5,0],[1,0.75,0],[0.5,1,0],[0,0.75,0],[0,0.5,0],[0,0.25,0]];resizable=0;gradientColor=#d5739d;" vertex="1" parent="1">
            <mxGeometry x="720" y="1420" width="240" height="120" as="geometry" />
          </mxCell>
        </object>
        <mxCell id="xy4HOPIGf3cJa-b_2TDP-36" value="" style="endArrow=none;dashed=1;html=1;rounded=0;" edge="1" parent="1" source="xy4HOPIGf3cJa-b_2TDP-35" target="xy4HOPIGf3cJa-b_2TDP-26">
          <mxGeometry width="50" height="50" relative="1" as="geometry">
            <mxPoint x="820" y="1470" as="sourcePoint" />
            <mxPoint x="870" y="1420" as="targetPoint" />
          </mxGeometry>
        </mxCell>
      </root>
    </mxGraphModel>
  </diagram>
</mxfile>
